<svg width="425" height="107" viewBox="0 0 425 107" fill="none" xmlns="http://www.w3.org/2000/svg">
<path d="M10.304 31.88H0.64V24.2H28.672V31.88H19.008V69H10.304V31.88ZM29.566 69V36.296H35.646L37.246 39.752C38.9527 37.448 41.1073 36.296 43.71 36.296H46.206V44.872H38.078V69H29.566ZM63.8145 36.296H70.6625L71.6225 38.6C72.5612 37.7467 73.4358 37.1493 74.2465 36.808C75.0998 36.4667 76.3585 36.296 78.0225 36.296H83.7825C85.5745 38.0453 86.9825 40.3067 88.0065 43.08C89.0305 45.8533 89.5425 48.904 89.5425 52.232C89.5425 59.3573 87.4092 64.9467 83.1425 69H77.7025C75.4412 69 73.6492 68.4027 72.3265 67.208V78.6H63.8145V36.296ZM72.3265 62.28H78.4705C80.0492 59.592 80.8385 56.328 80.8385 52.488C80.8385 48.648 80.0278 45.4907 78.4065 43.016H72.3265V62.28ZM123.769 69L122.425 61.896H112.313L110.969 69H102.265L110.905 24.2H124.153L132.345 69H123.769ZM117.241 32.52L114.745 47.432L113.337 55.048H121.337L119.865 47.432L117.369 32.52H117.241ZM160.208 69H153.744L152.592 66.696C151.653 67.5493 150.757 68.1467 149.904 68.488C149.093 68.8293 147.856 69 146.192 69H140.624C138.746 67.208 137.253 64.8613 136.144 61.96C135.077 59.0587 134.544 55.816 134.544 52.232C134.544 48.6053 135.077 45.5333 136.144 43.016C137.253 40.4987 138.81 38.2587 140.816 36.296H146.32C148.581 36.296 150.373 36.8933 151.696 38.088V24.2H160.208V69ZM151.696 43.016H145.552C143.973 45.704 143.184 49.0107 143.184 52.936C143.184 56.8187 143.952 59.9333 145.488 62.28H151.696V43.016ZM210.411 43.016H205.611C204.971 43.784 204.438 44.8507 204.011 46.216C203.627 47.5813 203.435 48.904 203.435 50.184H212.587C212.672 48.904 212.502 47.5813 212.075 46.216C211.648 44.808 211.094 43.7413 210.411 43.016ZM219.115 62.28V69H202.859C199.872 66.9947 197.76 64.52 196.523 61.576C195.328 58.5893 194.731 55.5813 194.731 52.552C194.731 45.5547 197.376 40.136 202.667 36.296H213.035C215.894 38.3867 217.835 40.6053 218.859 42.952C219.883 45.2987 220.395 47.6667 220.395 50.056C220.395 52.4453 220.203 54.4933 219.819 56.2H203.883C204.011 57.1813 204.374 58.312 204.971 59.592C205.611 60.8293 206.294 61.7253 207.019 62.28H219.115ZM238.898 36.296H245.682C247.559 38.6853 248.839 41.0747 249.522 43.464C250.204 45.8533 250.546 48.84 250.546 52.424V69H242.034V51.784C242.034 47.7307 241.479 44.808 240.37 43.016H233.202V69H224.69V36.296H231.345L232.498 38.6C233.436 37.7467 234.311 37.1493 235.122 36.808C235.975 36.4667 237.234 36.296 238.898 36.296ZM256.735 54.728V43.016H252.319V36.296H256.735V27.4H265.247V36.296H270.495V43.016H265.247V56.776C265.247 59.3787 265.695 61.2133 266.591 62.28H270.495V69H261.407C259.145 66.9093 257.78 64.648 257.311 62.216C256.927 60.168 256.735 57.672 256.735 54.728ZM286.08 69H279.36C277.483 66.6107 276.203 64.2213 275.52 61.832C274.837 59.4427 274.496 56.456 274.496 52.872V36.296H283.008V53.512C283.008 57.3947 283.776 60.3173 285.312 62.28H291.264V36.296H299.776V69H293.056L291.904 66.696C290.283 68.232 288.341 69 286.08 69ZM305.316 69V36.296H311.396L312.996 39.752C314.703 37.448 316.857 36.296 319.46 36.296H321.956V44.872H313.828V69H305.316ZM339.224 43.016H334.424C333.784 43.784 333.25 44.8507 332.824 46.216C332.44 47.5813 332.248 48.904 332.248 50.184H341.4C341.485 48.904 341.314 47.5813 340.888 46.216C340.461 44.808 339.906 43.7413 339.224 43.016ZM347.928 62.28V69H331.672C328.685 66.9947 326.573 64.52 325.336 61.576C324.141 58.5893 323.544 55.5813 323.544 52.552C323.544 45.5547 326.189 40.136 331.48 36.296H341.848C344.706 38.3867 346.648 40.6053 347.672 42.952C348.696 45.2987 349.208 47.6667 349.208 50.056C349.208 52.4453 349.016 54.4933 348.632 56.2H332.696C332.824 57.1813 333.186 58.312 333.784 59.592C334.424 60.8293 335.106 61.7253 335.832 62.28H347.928Z" fill="#206030"/>
<path d="M49.877 69V36.296H58.325V69H49.877ZM49.877 24.2H58.325V32.84H49.877V24.2ZM183.994 69H172.154C170.106 67.336 168.484 65.1387 167.29 62.408C166.095 59.6773 165.498 56.648 165.498 53.32V36.296H174.01V53.064C174.01 56.8187 174.714 59.8907 176.122 62.28H180.026C181.434 59.7627 182.138 56.712 182.138 53.128V36.296H190.65V53C190.65 56.3707 190.052 59.464 188.858 62.28C187.663 65.096 186.042 67.336 183.994 69Z" fill="#FF6200"/>
<path d="M425 89L395 71.6795V106.321L425 89ZM7 92H9.98571V86H7V92ZM15.9571 92H21.9286V86H15.9571V92ZM27.9 92H33.8714V86H27.9V92ZM39.8429 92H45.8143V86H39.8429V92ZM51.7857 92H57.7571V86H51.7857V92ZM63.7286 92H69.7V86H63.7286V92ZM75.6714 92H81.6429V86H75.6714V92ZM87.6143 92H93.5857V86H87.6143V92ZM99.5571 92H105.529V86H99.5571V92ZM111.5 92H117.471V86H111.5V92ZM123.443 92H129.414V86H123.443V92ZM135.386 92H141.357V86H135.386V92ZM147.329 92H153.3V86H147.329V92ZM159.271 92H165.243V86H159.271V92ZM171.214 92H177.186V86H171.214V92ZM183.157 92H189.129V86H183.157V92ZM195.1 92H201.072V86H195.1V92ZM207.043 92H213.014V86H207.043V92ZM218.986 92H224.957V86H218.986V92ZM230.929 92H236.9V86H230.929V92ZM242.872 92H248.843V86H242.872V92ZM254.814 92H260.786V86H254.814V92ZM266.757 92H272.729V86H266.757V92ZM278.7 92H284.672V86H278.7V92ZM290.643 92H296.614V86H290.643V92ZM302.586 92H308.557V86H302.586V92ZM314.529 92H320.5V86H314.529V92ZM326.472 92H332.443V86H326.472V92ZM338.415 92H344.386V86H338.415V92ZM350.357 92H356.329V86H350.357V92ZM362.3 92H368.272V86H362.3V92ZM374.243 92H380.215V86H374.243V92ZM386.186 92H392.157V86H386.186V92ZM398.129 92H404.1V86H398.129V92ZM410.072 92H416.043V86H410.072V92Z" fill="#206030"/>
</svg>
